<svg width="583" height="122" viewBox="0 0 583 122" fill="none" xmlns="http://www.w3.org/2000/svg">
<path d="M70.2201 45.2114C70.2201 56.7732 70.2155 68.3351 70.2246 79.8969C70.2246 82.5082 70.2838 85.1196 70.2656 87.7355C70.2519 89.4125 70.0743 89.5766 68.4624 89.5857C64.6421 89.6085 60.8263 89.6176 57.006 89.6176C56.6053 89.6176 56.2046 89.5812 55.8084 89.5219C55.0116 89.4034 54.406 89.048 54.1282 88.2185C54.0053 87.8448 53.814 87.4575 53.5545 87.1658C52.6666 86.1905 52.0837 85.0148 51.3779 83.921C50.6995 82.8683 49.8707 81.9158 49.1786 80.8722C48.2406 79.4503 47.3891 77.9737 46.4693 76.5382C45.9821 75.7771 45.422 75.0662 44.9257 74.3142C44.0924 73.061 43.3229 71.7622 42.5124 70.4952C41.7292 69.2739 41.0735 67.9614 40.0854 66.8767C40.0171 66.8038 39.9488 66.7263 39.9033 66.6352C38.9561 64.7986 37.581 63.2446 36.5155 61.4809C35.6094 59.977 34.5848 58.5415 33.6195 57.0786C33.3691 56.7003 33.1277 56.322 32.8955 55.9347C32.5586 55.3741 32.2717 54.7817 31.8983 54.2485C30.9466 52.8904 30.1726 51.4093 29.2209 50.0786C28.0825 48.4881 27.1946 46.729 25.9333 45.2296C25.7421 45.0017 25.5463 44.7511 25.4415 44.4776C25.059 43.475 24.3851 42.6593 23.8387 41.7615C23.3424 40.9503 22.9417 40.0662 22.3725 39.3142C21.6713 38.3891 21.0702 37.4047 20.41 36.4614C20.1823 36.1332 19.9501 35.8006 19.7634 35.4451C19.3399 34.643 18.8891 33.8774 18.2289 33.2302C17.8783 32.8884 17.6779 32.3963 17.3774 31.9952C17.0769 31.5942 16.5031 31.6215 16.2345 32.0453C16.1024 32.2504 15.9886 32.492 15.9613 32.7335C15.893 33.2302 15.8611 33.7361 15.8611 34.2374C15.8702 41.5747 15.8884 48.9165 15.893 56.2537C15.8975 65.505 15.893 74.7517 15.893 84.003C15.893 85.5115 15.893 87.0154 15.8793 88.5239C15.8748 89.1254 15.6972 89.367 15.1371 89.4809C14.7501 89.5629 14.3311 89.6358 13.9441 89.5857C12.3367 89.3806 10.7385 89.6267 9.13566 89.6131C6.72234 89.5903 4.31357 89.6222 1.90024 89.6267C1.59972 89.6267 1.29463 89.6176 1.00321 89.5538C0.584298 89.4581 0.274663 89.1983 0.220022 88.7426C0.147167 88.1456 0.0743117 87.5441 0.0652048 86.9425C0.0333308 84.6821 0.0196711 82.4171 0.0196711 80.1567C0.0196711 57.8351 0.0196711 35.518 0.0196711 13.1964C0.0196711 9.72829 0.00601039 6.26019 0.00145695 2.79209C0.00145695 2.54144 -0.00764951 2.28624 0.0196711 2.04014C0.0652055 1.64822 0.306538 1.393 0.69358 1.33832C1.03964 1.29274 1.39481 1.30642 1.74543 1.30642C4.7598 1.31553 7.77418 1.33832 10.7886 1.33832C11.9451 1.33832 13.0972 1.2973 14.2537 1.26084C15.0369 1.2335 15.5332 1.55707 15.9567 2.24067C17.0086 3.94509 18.1651 5.58116 19.2625 7.25824C19.645 7.84613 19.9637 8.47504 20.3462 9.06293C21.9035 11.4601 23.2832 13.9757 25.0681 16.2224C25.1911 16.3774 25.3004 16.5506 25.4005 16.7237C26.4114 18.5147 27.5771 20.2055 28.7655 21.8826C29.1981 22.4933 29.5078 23.186 29.8675 23.8468C30.7599 25.4783 31.953 26.923 32.768 28.6046C32.8545 28.7823 32.9684 28.9555 33.0959 29.1059C34.1523 30.3819 35.0493 31.7674 35.8552 33.212C35.9509 33.3852 36.0693 33.5584 36.215 33.6905C36.8752 34.2648 37.3123 34.9802 37.6083 35.8006C37.7085 36.074 37.918 36.311 38.1001 36.548C38.2868 36.7849 38.601 36.9581 38.6966 37.2179C39.2293 38.7081 40.2857 39.8611 41.1372 41.1417C41.8567 42.2263 42.3849 43.434 43.2591 44.4275C43.4868 44.6873 43.6644 45.0063 43.8147 45.3207C44.1835 46.1 44.6206 46.8155 45.2171 47.4444C45.4858 47.727 45.6816 48.0961 45.8592 48.4516C46.1551 49.0395 46.4648 49.6 46.9383 50.0694C47.1842 50.311 47.3891 50.6209 47.5212 50.9353C47.7215 51.4093 47.9674 51.8331 48.3362 52.1886C48.4091 52.2569 48.5093 52.3207 48.5411 52.4073C49.0875 53.9431 50.4308 54.9913 51.0546 56.477C51.4553 57.4249 52.111 58.186 52.8441 58.8787C53.5272 59.5258 54.3195 59.2661 54.5289 58.3455C54.711 57.548 54.6655 56.7368 54.497 55.9483C54.2876 54.9959 54.2466 54.0662 54.4879 53.1183C54.5744 52.7856 54.5608 52.421 54.5608 52.0701C54.5426 48.1007 54.5061 44.1313 54.4925 40.1619C54.4788 36.5434 54.4925 32.9249 54.4925 29.3019C54.4925 21.0577 54.4925 12.8136 54.4879 4.56944C54.4879 3.96788 54.4424 3.36631 54.3878 2.76931C54.283 1.65733 54.5653 1.32009 55.7174 1.31553C60.0386 1.30641 64.3598 1.31097 68.681 1.31097C68.8313 1.31097 68.9815 1.30641 69.1318 1.31553C70.0425 1.36566 70.2519 1.58442 70.2474 2.53233C70.2428 4.29145 70.2155 6.05056 70.2155 7.80967C70.2201 20.2739 70.2201 32.7426 70.2201 45.2114Z" fill="#5795CB"/>
<path d="M387.754 61.572C379.868 61.572 371.981 61.572 364.095 61.572C363.594 61.572 363.088 61.5538 362.587 61.6039C361.681 61.6951 361.249 62.169 361.221 63.0805C361.189 64.0968 361.385 65.0766 361.791 66.0108C362.628 67.9568 363.68 69.798 365.023 71.4204C366.203 72.8468 367.624 74.0818 369.281 74.9705C370.606 75.6814 371.967 76.3285 373.32 76.9985C373.73 77.2035 374.167 77.2765 374.622 77.3448C377.017 77.6957 379.426 77.6547 381.835 77.6638C383.46 77.6729 385.031 77.4314 386.584 77.0076C388.137 76.5838 389.662 76.0141 391.037 75.2029C392.098 74.5785 393.205 73.9405 394.052 72.9926C394.575 72.4047 395.304 72.1677 396.005 71.9171C396.442 71.7621 396.911 71.8351 397.326 72.0447C398.309 72.5414 399.397 72.8286 400.263 73.5532C400.654 73.8813 401.132 74.1593 401.61 74.1866C403.149 74.2686 404.297 75.2075 405.545 75.9047C406.077 76.2009 406.619 76.4288 407.188 76.6248C408.5 77.0668 408.659 77.8006 407.68 78.826C407.439 79.0812 407.188 79.3318 406.924 79.5597C406.31 80.0838 405.827 80.7263 405.276 81.3006C404.247 82.3761 403.332 83.5746 401.947 84.3038C400.709 84.9555 399.584 85.8168 398.396 86.5642C397.157 87.339 395.777 87.8312 394.439 88.3917C393.797 88.6606 393.114 88.8429 392.467 89.1254C391.77 89.4262 391.024 89.5492 390.277 89.6404C389.53 89.7315 388.783 89.8364 388.032 89.8819C387.322 89.9275 386.648 90.0688 385.992 90.3605C385.25 90.6886 384.462 90.8344 383.647 90.8344C381.839 90.8344 380.032 90.8481 378.224 90.8253C376.862 90.8116 375.533 90.602 374.208 90.2693C373.334 90.0506 372.441 89.9093 371.549 89.7771C370.151 89.572 368.812 89.1756 367.505 88.6332C365.839 87.9405 364.126 87.3526 362.583 86.3865C361.053 85.4295 359.427 84.5864 358.034 83.4562C356.927 82.5584 355.625 81.7973 354.901 80.4711C353.43 79.2817 352.474 77.6775 351.409 76.1599C350.134 74.3461 349.123 72.4047 348.449 70.2719C347.916 68.5994 347.292 66.9588 346.887 65.2452C346.204 62.3513 345.726 59.4392 345.858 56.4542C345.885 55.8025 345.908 55.1463 345.894 54.4946C345.876 53.4828 345.967 52.503 346.341 51.5369C346.555 50.9809 346.6 50.3657 346.719 49.7732C346.81 49.3312 346.883 48.8845 346.983 48.447C347.493 46.2687 349.596 40.4991 350.949 38.4073C351.304 37.8605 351.723 37.3591 352.11 36.8351C352.438 36.393 352.788 35.9646 353.084 35.4998C353.467 34.9028 353.868 34.3377 354.541 34.0187C354.97 33.8181 355.22 33.4399 355.434 33.0297C355.571 32.7654 355.716 32.4783 355.935 32.2914C356.732 31.6033 357.515 30.8969 358.385 30.3136C359.095 29.8351 359.773 29.3292 360.429 28.7778C360.848 28.4269 361.312 28.1124 361.795 27.8481C363.867 26.7179 365.989 25.6925 368.174 24.8038C368.921 24.4985 369.695 24.3253 370.492 24.184C372.072 23.9015 373.639 23.546 375.21 23.227C375.551 23.1586 375.897 23.072 376.248 23.0629C378.456 23.0173 380.665 22.9125 382.878 23.0173C383.483 23.0447 384.08 23.0948 384.653 23.2999C385.651 23.6508 386.675 23.8741 387.713 24.0564C389.799 24.421 391.761 25.1821 393.728 25.934C394.949 26.3989 396.146 26.8956 397.266 27.5838C398.55 28.3722 399.825 29.1606 400.95 30.1814C401.465 30.6508 401.984 31.1293 402.649 31.4164C402.913 31.5304 403.181 31.7355 403.345 31.9679C404.434 33.5356 405.968 34.7433 406.892 36.434C406.988 36.6072 407.12 36.7713 407.261 36.908C408.104 37.7328 408.541 38.8084 409.133 39.7973C410.144 41.4789 410.963 43.2244 411.528 45.102C411.774 45.9177 412.097 46.7016 412.211 47.5584C412.361 48.7068 412.625 49.8325 413.021 50.9171C413.39 51.9242 413.55 52.9588 413.577 54.0161C413.636 56.1762 413.668 58.3364 413.682 60.4965C413.686 61.3715 413.39 61.6222 412.466 61.6222C411.614 61.6222 410.758 61.5857 409.907 61.5857C402.526 61.572 395.14 61.5766 387.754 61.572Z" fill="#5495C8"/>
<path d="M86.5533 56.8188C86.5533 56.0668 86.5533 55.3103 86.5533 54.5584C86.5578 53.4054 86.5487 52.2706 87.0724 51.1723C87.341 50.6072 87.3273 49.9008 87.4321 49.2583C87.6142 48.1144 87.8419 46.9887 88.3245 45.9269C88.4475 45.6534 88.575 45.3754 88.6524 45.0883C89.5631 41.7752 91.5074 39.0135 93.5519 36.3611C95.2002 34.2192 97.0672 32.2231 99.1936 30.5232C100.009 29.8715 100.91 29.3019 101.789 28.7413C103.096 27.9073 104.407 27.0597 105.842 26.4353C106.852 25.9933 107.831 25.4874 108.806 24.9724C109.393 24.6625 109.981 24.4529 110.659 24.4256C111.36 24.3982 112.062 24.3071 112.749 24.1749C113.387 24.0564 114.042 23.9288 114.63 23.6645C115.754 23.1586 116.916 22.9353 118.136 22.9445C119.142 22.9536 120.144 22.9353 121.15 22.9353C122.566 22.9399 123.946 23.1495 125.294 23.6053C126.296 23.9425 127.338 24.1157 128.395 24.1749C128.95 24.2068 129.497 24.2797 130.011 24.4939C131.951 25.3142 133.977 25.975 135.803 26.9959C137.802 28.1079 139.988 28.9874 141.582 30.742C144.309 32.7016 146.354 35.3129 148.371 37.9334C149.222 39.0408 149.892 40.2941 150.607 41.4972C150.966 42.0987 151.271 42.7322 151.371 43.4477C151.399 43.6437 151.485 43.8351 151.576 44.0128C152.514 45.8767 152.865 47.9139 153.339 49.9145C153.502 50.5981 153.625 51.2862 153.917 51.9334C154.04 52.2023 154.09 52.5122 154.113 52.8084C154.336 55.5154 154.286 58.227 154.131 60.9386C154.117 61.1892 154.09 61.449 154.003 61.6769C153.411 63.2856 153.134 64.9718 152.778 66.6398C152.697 67.0317 152.592 67.4282 152.428 67.7882C151.85 69.0642 151.258 70.3357 150.893 71.6984C150.793 72.0766 150.57 72.4457 150.32 72.7511C149.896 73.2615 149.659 73.8722 149.318 74.4236C148.526 75.6951 147.802 77.0122 146.741 78.0968C146.426 78.4158 146.144 78.7713 145.871 79.1267C144.678 80.6671 141.964 83.1007 140.334 84.1625C139.287 84.8416 138.299 85.6118 137.228 86.268C136.668 86.6098 136.095 86.8969 135.521 87.1977C133.918 88.0454 132.147 88.4692 130.503 89.2166C129.907 89.4855 129.26 89.6085 128.6 89.6131C127.484 89.6222 126.414 89.8728 125.362 90.2283C124.26 90.5974 123.131 90.8253 121.965 90.8344C120.508 90.8435 119.056 90.839 117.599 90.8435C116.834 90.8481 116.078 90.7205 115.39 90.4334C113.929 89.8227 112.385 89.6404 110.841 89.4581C110.131 89.3761 109.507 89.2029 108.874 88.8201C108.068 88.3279 107.158 88.0043 106.279 87.6306C104.794 87.0017 103.415 86.1814 102.053 85.3247C101.329 84.8735 100.605 84.4223 99.8812 83.9711C99.7537 83.8937 99.5943 83.8435 99.4941 83.7387C98.3102 82.5128 96.8395 81.5922 95.8286 80.1795C95.305 79.4503 94.6265 78.8305 94.0846 78.1105C92.7596 76.3514 91.2843 74.6879 90.3918 72.6372C90.3326 72.5004 90.2871 72.3455 90.1915 72.2316C88.871 70.6912 88.5886 68.6814 87.8692 66.8813C87.4321 65.783 87.3865 64.5297 87.1725 63.3448C87.127 63.0988 87.1725 62.8071 87.0587 62.6066C86.4258 61.49 86.5806 60.2687 86.5441 59.0701C86.5214 58.3181 86.5396 57.5616 86.5396 56.8097C86.5487 56.8188 86.5487 56.8188 86.5533 56.8188Z" fill="#5695CA"/>
<path d="M550.799 56.9555C550.74 58.4503 550.69 59.7537 550.626 61.0571C550.613 61.3032 550.585 61.5675 550.499 61.7954C549.916 63.3038 549.706 64.9034 549.356 66.4666C549.333 66.5623 549.329 66.6671 549.306 66.7628C549.21 67.1866 546.915 72.587 546.706 72.9926C545.986 74.3689 545.076 75.6313 544.261 76.9484C544.156 77.117 544.042 77.2856 543.905 77.4314C542.626 78.8396 541.392 80.298 540.04 81.6378C539.12 82.5493 538.063 83.3377 537.007 84.0987C535.791 84.9783 534.562 85.8624 533.241 86.5642C531.789 87.3344 530.304 88.059 528.724 88.6013C527.053 89.171 525.405 89.6586 523.624 89.7589C522.796 89.8045 521.976 90.1736 521.161 90.4243C520.387 90.6658 519.608 90.8344 518.798 90.8435C517.291 90.8572 515.783 90.8754 514.276 90.8754C513.416 90.8754 512.569 90.7159 511.776 90.3969C510.265 89.7862 508.675 89.5903 507.077 89.4171C506.731 89.3806 506.34 89.3761 506.062 89.2075C504.687 88.3598 503.12 87.9223 501.7 87.1795C500.68 86.6463 499.687 86.0447 498.712 85.4249C497.907 84.9145 497.164 84.3084 496.285 83.9119C496.194 83.8709 496.099 83.8253 496.03 83.7569C494.719 82.4536 493.107 81.4418 492.092 79.8422C491.709 79.2407 491.199 78.7622 490.749 78.2244C489.301 76.4926 487.848 74.7563 486.933 72.66C486.851 72.4777 486.801 72.2543 486.664 72.1222C485.612 71.1287 485.526 69.6977 484.97 68.4809C484.401 67.2322 484.114 65.9243 483.927 64.5708C483.791 63.5818 483.713 62.5701 483.249 61.6541C483.04 61.2394 483.076 60.77 483.076 60.3188C483.071 58.0584 483.076 55.7934 483.076 53.533C483.076 52.977 483.099 52.4301 483.345 51.9106C483.718 51.1267 483.836 50.2836 483.937 49.436C484.1 48.0825 484.36 46.7609 484.998 45.5349C485.111 45.3116 485.207 45.0792 485.275 44.8377C486.163 41.7387 487.957 39.1274 489.874 36.6254C491.582 34.3969 493.544 32.3644 495.675 30.5187C495.712 30.4868 495.744 30.4412 495.789 30.4184C498.148 29.1059 500.201 27.2875 502.756 26.2804C503.73 25.8976 504.632 25.3234 505.561 24.8312C506.012 24.5942 506.485 24.4757 507 24.4392C508.757 24.3208 510.501 24.1157 512.095 23.268C512.555 23.0265 513.06 23.0037 513.561 22.9809C515.419 22.8852 517.277 22.9034 519.135 23.0174C519.745 23.0538 520.328 23.1905 520.901 23.3728C522.295 23.8194 523.702 24.1704 525.173 24.2159C525.632 24.2296 526.07 24.3344 526.488 24.5076C528.201 25.214 529.917 25.9204 531.625 26.6313C532.276 26.9002 532.895 27.2146 533.464 27.6476C533.819 27.9165 534.243 28.0987 534.653 28.2856C535.249 28.559 535.823 28.8598 536.338 29.27C538.578 31.0473 540.823 32.8155 542.585 35.1124C543.318 36.0649 544.229 36.8761 544.898 37.8833C545.731 39.1365 546.701 40.3351 547.238 41.7342C548.044 43.8351 549.014 45.8767 549.456 48.1144C549.716 49.436 549.934 50.785 550.499 52.0382C550.617 52.3025 550.644 52.6215 550.658 52.9223C550.713 54.3351 550.754 55.7387 550.799 56.9555Z" fill="#5796CB"/>
<path d="M266.596 53.4646C266.596 43.156 266.596 32.852 266.596 22.5434C266.596 21.2856 266.619 20.0323 266.619 18.7745C266.619 17.895 266.323 17.4939 265.481 17.2341C265.048 17.102 264.616 17.0154 264.147 17.0883C263.149 17.2433 262.152 17.1703 261.146 17.0792C260.149 16.9881 259.138 17.0382 258.131 17.0336C256.374 17.0291 254.612 17.0382 252.854 17.0291C252.453 17.0291 252.048 17.0291 251.652 16.9653C251.101 16.8741 250.769 16.4959 250.637 15.9763C250.564 15.6892 250.582 15.3793 250.582 15.0786C250.591 11.5603 250.605 8.04209 250.609 4.52386C250.609 3.87217 250.568 3.21592 250.559 2.56423C250.545 1.64365 250.791 1.37021 251.666 1.31552C251.966 1.2973 252.267 1.30642 252.572 1.30642C266.341 1.31097 280.115 1.31552 293.885 1.31552C294.791 1.31552 295.693 1.30641 296.599 1.30185C296.899 1.30185 297.205 1.29274 297.501 1.3292C298.152 1.40668 298.489 1.77581 298.493 2.42751C298.498 2.97894 298.443 3.53037 298.448 4.08636C298.47 6.64756 298.516 9.21332 298.525 11.7745C298.53 13.1326 298.489 14.4907 298.443 15.8442C298.42 16.4868 298.07 16.8468 297.441 16.9653C297.341 16.9835 297.241 16.9972 297.141 17.0017C295.033 17.061 292.92 17.2433 290.821 17.1339C288.762 17.0291 286.704 17.0929 284.646 16.9881C283.913 16.9516 283.248 17.0974 282.67 17.5577C282.283 17.8631 282.046 18.2732 282.237 18.7472C282.693 19.8683 282.497 21.0304 282.497 22.1743C282.511 41.1782 282.506 60.1866 282.506 79.1905C282.506 81.9067 282.506 84.6183 282.506 87.3344C282.506 87.5851 282.515 87.8403 282.492 88.0864C282.415 88.8611 281.955 89.3761 281.181 89.5265C280.89 89.5811 280.58 89.5857 280.279 89.5811C277.921 89.531 275.557 89.6404 273.199 89.4991C272.001 89.4308 270.795 89.5766 269.588 89.6131C268.932 89.6313 268.281 89.5812 267.648 89.408C266.892 89.2029 266.642 88.9249 266.605 88.1456C266.564 87.2934 266.555 86.4366 266.555 85.5844C266.551 74.8748 266.555 64.1651 266.555 53.4555C266.569 53.4646 266.583 53.4646 266.596 53.4646Z" fill="#5796CB"/>
<path d="M170.373 63.5727C170.373 55.5792 170.359 47.5857 170.387 39.5968C170.391 37.9197 170.027 37.4002 168.319 37.4503C167.017 37.4913 165.706 37.4229 164.403 37.4047C163.948 37.4002 163.502 37.3728 163.078 37.1814C162.568 36.9535 162.272 36.5798 162.304 36.0102C162.345 35.3585 162.45 34.7114 162.464 34.0597C162.486 32.6013 162.468 31.143 162.468 29.6892C162.468 28.3813 162.464 27.0779 162.486 25.77C162.505 24.822 162.883 24.3936 163.802 24.2706C164.148 24.225 164.504 24.2433 164.854 24.2387C166.161 24.2341 167.468 24.2022 168.775 24.2478C169.854 24.2888 170.405 23.6189 170.355 22.6938C170.337 22.3429 170.359 21.992 170.359 21.6365C170.35 14.9008 170.341 8.16513 170.332 1.42945C170.332 1.22893 170.323 1.02842 170.341 0.827895C170.391 0.344822 170.628 0.0896141 171.088 0.0303693C171.288 0.00758288 171.489 0.0121432 171.689 0.0121432C174.603 0.00758594 177.517 -0.015203 180.432 0.016698C181.788 0.0303699 183.141 0.135186 184.493 0.00758149C184.739 -0.015205 184.999 0.0212525 185.235 0.0850546C185.659 0.19443 185.941 0.486097 186.005 0.91904C186.064 1.31552 186.06 1.72112 186.06 2.12216C186.064 8.15602 186.064 14.1853 186.064 20.2192C186.064 20.8709 186.05 21.5271 185.987 22.1788C185.846 23.6918 186.583 24.3572 187.986 24.2752C189.689 24.1795 191.401 24.2022 193.108 24.184C193.609 24.1795 194.115 24.1795 194.588 24.3891C195.034 24.5851 195.335 24.8767 195.34 25.4054C195.344 26.6541 195.563 27.8845 195.494 29.156C195.39 31.0564 195.353 32.9705 195.572 34.88C195.622 35.3266 195.617 35.7869 195.572 36.2335C195.513 36.8351 195.125 37.2452 194.52 37.3546C194.128 37.423 193.718 37.4275 193.318 37.4275C191.46 37.4321 189.602 37.4229 187.744 37.4184C187.594 37.4184 187.444 37.4047 187.294 37.4184C186.488 37.4867 186.005 37.9653 185.991 38.7856C185.982 39.4874 186.055 40.1892 186.055 40.8956C186.064 53.7153 186.064 66.5304 186.064 79.35C186.064 82.1117 186.069 84.878 186.055 87.6397C186.046 89.4216 185.85 89.5994 184.029 89.5994C179.958 89.5994 175.892 89.5994 171.821 89.5994C171.671 89.5994 171.52 89.6131 171.37 89.6085C170.66 89.5766 170.346 89.294 170.327 88.6059C170.309 87.9542 170.35 87.298 170.35 86.6463C170.35 78.9536 170.35 71.2654 170.35 63.5727C170.364 63.5727 170.368 63.5727 170.373 63.5727Z" fill="#5298CD"/>
<path d="M470.891 41.7661C470.891 54.0799 470.896 66.3937 470.886 78.7075C470.886 80.7172 470.823 82.7225 470.759 84.7322C470.732 85.6391 470.782 86.5323 470.873 87.4392C471.05 89.2257 470.682 89.5994 468.919 89.5994C464.849 89.5994 460.782 89.5994 456.712 89.604C456.611 89.604 456.511 89.6131 456.411 89.6131C455.273 89.5948 454.963 89.2622 455.159 88.1365C455.254 87.5851 455.259 87.0382 455.259 86.4868C455.264 58.6918 455.264 30.8969 455.268 3.102C455.268 2.44575 455.214 1.80317 455.1 1.15604C454.981 0.472445 455.318 0.0987494 456.01 0.075963C456.962 0.0440619 457.918 0.0486134 458.874 0.0486134C462.139 0.0394988 465.404 0.0303853 468.669 0.0212708C468.869 0.0212708 469.07 0.0258294 469.27 0.0440586C470.331 0.135204 470.777 0.581822 470.868 1.67102C470.9 2.07206 470.886 2.4731 470.886 2.87869C470.891 15.8305 470.891 28.8006 470.891 41.7661Z" fill="#5B94C5"/>
<path d="M426.021 45.02C426.021 31.4939 426.021 17.9679 426.021 4.4464C426.021 3.48937 425.989 2.5369 426.035 1.58443C426.085 0.477005 426.509 0.0668456 427.642 0.057731C430.356 0.0395019 433.07 0.0622858 435.784 0.0622858C436.94 0.0622858 438.092 0.0395024 439.249 0.0440597C439.7 0.048617 440.155 0.0622869 440.597 0.148875C441.171 0.262808 441.453 0.631947 441.498 1.20161C441.517 1.40213 441.494 1.60265 441.494 1.80317C441.494 24.781 441.494 47.7589 441.489 70.7322C441.489 71.0831 441.467 71.4386 441.503 71.7895C441.635 73.0929 441.553 74.3963 441.558 75.6997C441.562 78.1606 441.467 80.6215 441.612 83.087C441.717 84.837 441.539 86.6007 441.467 88.3553C441.439 89.0252 441.134 89.3761 440.492 89.5083C440.151 89.5766 439.795 89.5857 439.445 89.5857C435.675 89.5903 431.909 89.5903 428.139 89.5857C427.838 89.5857 427.533 89.5948 427.237 89.5401C426.313 89.3761 426.049 89.1437 426.053 88.1502C426.076 84.9327 426.026 81.7198 426.026 78.5024C426.017 67.3416 426.017 56.1808 426.021 45.02Z" fill="#5796C9"/>
<path d="M305.474 56.9373C305.474 48.3468 305.469 39.7518 305.474 31.1613C305.474 29.2518 305.51 27.3468 305.515 25.4373C305.515 24.9086 305.77 24.5623 306.239 24.4165C306.616 24.3025 307.026 24.2524 307.422 24.2478C310.387 24.2159 313.346 24.1931 316.311 24.1886C316.862 24.1886 317.422 24.2205 317.959 24.3299C318.674 24.4711 318.965 24.854 318.979 25.5968C319.006 26.7999 318.993 28.0076 319.002 29.2153C319.006 29.6163 318.997 30.0219 319.056 30.4184C319.116 30.8331 319.366 31.1567 319.735 31.3663C320.286 31.6808 320.973 31.4803 321.238 30.8286C322.148 28.5909 323.988 27.1645 325.736 25.6788C326.652 24.8995 327.731 24.3253 328.978 24.1886C329.593 24.1202 330.13 23.8422 330.645 23.5278C331.31 23.1222 332.025 22.9536 332.794 22.9353C334.256 22.8943 335.708 22.8761 337.033 23.6691C337.416 23.8969 337.876 23.9881 338.295 24.1612C339.192 24.5304 339.429 25.0499 339.069 25.9386C338.709 26.8227 338.331 27.6977 337.921 28.5545C337.639 29.1515 337.421 29.7485 337.375 30.4184C337.352 30.7602 337.225 31.102 337.093 31.421C336.701 32.3461 336.291 33.2576 335.872 34.1691C335.704 34.5382 335.626 34.9256 335.558 35.3266C335.508 35.6183 335.417 35.9145 335.271 36.1697C334.889 36.8396 334.311 37.0948 333.614 36.7576C332.771 36.3475 331.888 36.2654 330.991 36.1606C329.138 35.9419 327.544 36.434 326.178 37.7465C325.19 38.699 324.457 39.8338 323.66 40.9275C323.514 41.1281 323.387 41.365 323.332 41.602C322.913 43.5069 322.185 45.339 321.984 47.3032C321.843 48.6977 321.506 50.0695 321.269 51.4503C321.188 51.9425 321.096 52.4392 321.083 52.9405C321.005 55.4516 320.955 57.9672 320.996 60.4737C321.078 65.2452 321.024 70.0167 321.055 74.7928C321.087 79.2635 321.065 83.7342 321.065 88.2049C321.065 88.4054 321.074 88.6059 321.051 88.8064C321.019 89.0799 320.846 89.2713 320.591 89.3442C320.058 89.4991 319.516 89.5857 318.961 89.5857C315.245 89.5812 311.53 89.5857 307.809 89.5857C307.659 89.5857 307.509 89.5857 307.359 89.5721C305.715 89.4308 305.528 89.212 305.528 87.5395C305.533 77.3403 305.528 67.1411 305.528 56.9373C305.515 56.9373 305.492 56.9373 305.474 56.9373Z" fill="#5498CD"/>
<path d="M222.533 49.6091C226.649 49.6091 230.761 49.6046 234.877 49.6091C235.328 49.6091 235.788 49.5955 236.225 49.6821C236.931 49.8188 237.231 50.2517 237.177 50.9855C236.935 54.294 237.154 57.6072 237.035 60.9203C237.013 61.5173 237.149 62.1189 237.195 62.7159C237.258 63.6046 237.04 63.9145 236.188 64.0968C235.096 64.3246 233.994 64.2608 232.892 64.1925C232.341 64.1606 231.79 64.1013 231.243 64.1013C224.818 64.0968 218.398 64.0968 211.973 64.1059C211.422 64.1059 210.876 64.1697 210.325 64.1925C209.974 64.2107 209.619 64.2517 209.273 64.2107C208.171 64.0785 207.875 63.6502 207.939 62.5063C207.994 61.5538 207.984 60.6013 207.994 59.6489C208.012 57.589 208.021 55.5336 208.03 53.4737C208.034 52.6716 207.989 51.8741 207.848 51.0766C207.711 50.3064 208.075 49.8051 208.831 49.673C209.273 49.5955 209.733 49.6137 210.179 49.6137C214.305 49.6091 218.421 49.6091 222.533 49.6091Z" fill="#5896C7"/>
<path d="M573.503 90.7843C571.968 90.7478 570.516 90.479 569.336 89.3761C568.931 88.9978 568.458 88.7107 567.943 88.5011C567.611 88.3644 567.283 88.2094 567.082 87.9177C566.272 86.7192 565.316 85.5844 565.134 84.076C565.065 83.52 564.947 82.9959 564.705 82.49C564.405 81.8657 564.437 81.2322 564.651 80.5896C564.874 79.9243 565.088 79.2589 565.284 78.5844C565.785 76.8618 566.864 75.5812 568.335 74.6241C569.254 74.0226 570.22 73.4802 571.176 72.9334C571.659 72.6599 572.191 72.5323 572.756 72.505C573.767 72.4549 574.755 72.5916 575.739 72.8058C575.934 72.8468 576.135 72.9015 576.303 72.9972C577.91 73.9223 579.518 74.8566 580.725 76.3149C580.948 76.5838 581.134 76.8845 581.294 77.1944C581.64 77.8598 581.94 78.5525 582.286 79.2133C582.632 79.8696 582.646 80.576 582.578 81.2687C582.482 82.2667 582.314 83.2556 582.172 84.2446C582.15 84.3904 582.1 84.5408 582.031 84.673C581.212 86.227 580.383 87.7765 578.876 88.8064C578.461 89.089 578.033 89.3533 577.628 89.645C576.39 90.5382 574.987 90.8025 573.503 90.7843Z" fill="#5297CE"/>
<path d="M380.032 112.199C380.164 110.713 380.259 109.269 380.159 107.806C380.109 107.081 380.678 106.689 381.361 106.913C381.639 107.004 381.903 107.168 382.149 107.336C382.609 107.646 383.046 107.733 383.533 107.391C383.998 107.063 384.544 106.976 385.1 106.913C386.092 106.803 386.935 106.94 387.64 107.801C388.305 108.608 389.066 108.594 389.89 107.979C390.131 107.801 390.331 107.56 390.586 107.405C391.702 106.726 392.827 106.662 394.002 107.304C395.267 107.997 395.887 109.013 395.868 110.476C395.846 112.281 395.909 114.09 395.932 115.895C395.937 116.146 395.946 116.401 395.909 116.647C395.828 117.18 395.418 117.481 394.826 117.472C394.325 117.463 393.997 117.18 393.938 116.638C393.901 116.291 393.915 115.936 393.951 115.59C394.07 114.487 394.079 113.393 393.924 112.29C393.829 111.597 393.874 110.887 393.838 110.185C393.797 109.383 393.492 108.977 392.74 108.786C392.053 108.612 391.342 108.617 390.65 108.754C390.067 108.868 389.694 109.255 389.526 109.843C389.152 111.146 388.761 112.441 388.879 113.826C388.924 114.377 388.938 114.929 388.956 115.48C388.965 115.781 388.979 116.086 388.952 116.383C388.906 116.888 388.537 117.271 388.109 117.294C387.704 117.317 387.253 116.934 387.199 116.456C387.149 116.009 387.167 115.553 387.162 115.102C387.14 113.598 387.153 112.099 386.989 110.595C386.885 109.638 386.406 109.159 385.623 108.818C385.049 108.567 384.453 108.576 383.847 108.626C383.588 108.649 383.342 108.754 383.196 108.963C382.6 109.825 381.935 110.659 381.971 111.803C382.012 113.056 382.021 114.314 382.044 115.567C382.053 115.968 382.085 116.373 382.053 116.77C382.017 117.244 381.625 117.563 381.129 117.581C380.642 117.599 380.246 117.28 380.168 116.811C380.15 116.711 380.127 116.61 380.141 116.51C380.328 115.061 380.186 113.612 380.032 112.199Z" fill="#6B95AF"/>
<path d="M272.056 113.648C271.96 112.45 271.887 111.247 271.755 110.048C271.646 109.045 271.3 108.767 270.294 108.726C270.143 108.722 269.993 108.726 269.843 108.726C268.199 108.749 267.817 109.132 267.393 110.759C267.006 112.254 267.147 113.748 267.143 115.248C267.143 115.699 267.179 116.15 267.147 116.601C267.115 117.039 266.774 117.353 266.378 117.394C265.918 117.44 265.453 117.139 265.362 116.683C265.303 116.392 265.303 116.086 265.308 115.786C265.317 114.482 265.33 113.174 265.344 111.871C265.344 111.67 265.317 111.461 265.362 111.269C265.604 110.262 265.467 109.301 265.18 108.316C264.966 107.596 265.367 107.127 266.1 107.136C266.446 107.14 266.806 107.191 267.134 107.295C267.744 107.491 268.313 107.45 268.887 107.191C269.251 107.026 269.624 106.89 270.039 106.876C270.708 106.853 271.336 106.922 271.869 107.386C272.211 107.683 272.58 107.933 273.017 108.088C273.886 108.398 274.656 108.421 275.353 107.66C276.154 106.785 277.219 106.748 278.285 106.985C279.587 107.277 280.607 108.571 280.739 110.084C280.849 111.333 280.994 112.577 280.935 113.835C280.894 114.683 280.985 115.54 280.999 116.396C281.008 116.989 280.844 117.28 280.489 117.362C280.011 117.472 279.442 117.176 279.282 116.692C279.205 116.46 279.177 116.2 279.177 115.95C279.187 115.097 279.205 114.241 279.246 113.393C279.278 112.737 279.314 112.099 278.954 111.497C278.69 111.06 278.677 110.54 278.681 110.034C278.686 109.456 278.349 109.114 277.848 108.904C277.124 108.599 276.363 108.64 275.621 108.74C275.157 108.804 274.82 109.168 274.651 109.61C274.182 110.868 273.536 112.062 273.782 113.507C273.927 114.386 273.823 115.312 273.823 116.214C273.823 116.414 273.818 116.62 273.777 116.811C273.691 117.262 273.226 117.613 272.798 117.577C272.416 117.545 272.042 117.212 271.983 116.811C271.947 116.565 271.951 116.31 271.951 116.059C271.947 115.257 271.951 114.45 271.951 113.648C271.983 113.653 272.019 113.648 272.056 113.648Z" fill="#7091B0"/>
<path d="M286.203 119.144C286.181 119.596 286.208 120.056 286.131 120.493C285.998 121.245 285.152 121.573 284.473 121.168C284.191 120.999 284.041 120.712 284.122 120.398C284.714 118.165 284.223 115.895 284.368 113.648C284.45 112.349 284.241 111.041 284.377 109.734C284.437 109.187 284.318 108.64 284.182 108.097C284.013 107.418 284.377 107.04 285.083 107.109C285.329 107.131 285.584 107.181 285.807 107.286C286.595 107.646 287.36 107.633 288.116 107.209C288.958 106.739 289.873 106.876 290.77 106.917C290.916 106.922 291.08 106.963 291.203 107.04C292.592 107.956 294.003 108.854 294.268 110.709C294.331 111.155 294.413 111.602 294.472 112.049C294.568 112.76 294.509 113.448 294.135 114.09C293.958 114.391 293.803 114.71 293.671 115.034C293.416 115.663 292.993 116.141 292.423 116.497C292.168 116.656 291.909 116.811 291.663 116.984C290.616 117.718 289.537 117.804 288.412 117.171C288.193 117.048 287.975 116.911 287.742 116.834C287 116.583 286.281 117.007 286.181 117.782C286.126 118.228 286.172 118.684 286.172 119.135C286.181 119.144 286.194 119.144 286.203 119.144Z" fill="#6992B9"/>
<path d="M326.852 112.208C326.852 113.461 326.852 114.71 326.852 115.963C326.852 116.114 326.857 116.264 326.838 116.414C326.77 116.966 326.378 117.308 325.809 117.276C325.459 117.258 325.117 117.185 324.767 117.135C324.115 117.039 323.487 117.089 322.84 117.262C320.655 117.836 318.424 116.934 317.226 115.047C316.948 114.61 316.921 114.104 316.784 113.625C316.534 112.741 316.52 111.848 316.561 110.946C316.584 110.431 316.743 109.957 317.067 109.56C317.545 108.982 318.046 108.426 318.528 107.851C319.011 107.277 319.667 107.026 320.363 106.931C321.306 106.799 322.258 106.735 323.173 107.136C323.842 107.428 324.521 107.487 325.213 107.218C325.349 107.163 325.509 107.163 325.654 107.145C326.624 107.045 326.911 107.3 326.916 108.307C326.925 109.61 326.916 110.909 326.916 112.213C326.902 112.208 326.879 112.208 326.852 112.208Z" fill="#6F93B5"/>
<path d="M376.835 110.923C376.78 112.167 376.894 113.466 376.667 114.765C376.571 115.298 376.685 115.863 376.676 116.414C376.662 117.303 376.143 117.681 375.282 117.403C375.005 117.317 374.736 117.144 374.517 116.948C374.058 116.542 373.616 116.579 373.165 116.916C372.705 117.258 372.195 117.385 371.631 117.444C370.296 117.59 369.263 117.18 368.238 116.26C366.736 114.911 366.417 113.233 366.394 111.392C366.39 111.096 366.453 110.791 366.544 110.508C367.022 109.05 368.07 108.006 369.322 107.277C370.387 106.657 371.631 106.703 372.796 107.222C372.978 107.304 373.142 107.428 373.32 107.514C373.657 107.674 373.989 107.683 374.317 107.473C374.609 107.282 374.9 107.067 375.219 106.94C376.161 106.562 376.799 106.985 376.826 108.015C376.853 108.963 376.835 109.916 376.835 110.923Z" fill="#688EA7"/>
<path d="M236.703 112.286C236.667 113.635 236.648 114.988 236.589 116.337C236.557 117.066 236.084 117.435 235.392 117.321C235.196 117.289 234.995 117.235 234.813 117.157C233.98 116.802 233.188 116.925 232.341 117.212C229.968 118.005 227.478 116.702 226.722 114.304C226.54 113.735 226.435 113.138 226.362 112.545C226.103 110.376 227.063 108.754 228.757 107.528C229.7 106.844 230.834 106.721 231.926 106.976C232.823 107.186 233.702 107.227 234.604 107.204C234.904 107.2 235.205 107.191 235.505 107.222C236.22 107.291 236.585 107.655 236.612 108.385C236.635 108.986 236.594 109.588 236.589 110.189C236.585 110.891 236.589 111.593 236.589 112.295C236.63 112.286 236.667 112.286 236.703 112.286Z" fill="#6D92AC"/>
<path d="M404.552 112.509C403.851 112.509 403.149 112.504 402.444 112.509C402.143 112.513 401.838 112.509 401.547 112.559C400.996 112.655 400.704 113.092 400.768 113.657C400.877 114.578 401.651 115.426 402.567 115.663C403.418 115.877 404.256 115.831 405.089 115.581C405.567 115.435 406.041 115.262 406.555 115.293C406.86 115.312 407.17 115.344 407.293 115.69C407.398 115.991 407.343 116.282 407.143 116.538C406.888 116.866 406.555 117.08 406.155 117.185C404.233 117.686 402.375 117.636 400.668 116.492C399.702 115.845 399.161 114.888 398.951 113.762C398.632 112.058 398.969 110.417 399.844 108.982C400.563 107.797 401.788 107.131 403.19 106.926C403.632 106.862 404.092 106.917 404.543 106.903C405.667 106.876 406.592 107.332 407.384 108.084C408.327 108.982 408.809 110.125 409.055 111.383C409.128 111.757 408.937 112.085 408.582 112.235C408.113 112.436 407.621 112.518 407.115 112.513C406.259 112.504 405.408 112.504 404.552 112.509C404.552 112.504 404.552 112.504 404.552 112.509Z" fill="#5E90B4"/>
<path d="M259.907 112.422C258.209 112.536 256.501 112.518 254.798 112.541C254.648 112.541 254.498 112.573 254.352 112.609C253.847 112.746 253.555 113.275 253.733 113.789C254.07 114.751 254.703 115.398 255.718 115.663C256.779 115.936 257.808 115.713 258.842 115.526C259.183 115.462 259.529 115.389 259.871 115.371C260.103 115.362 260.208 115.558 260.212 115.776C260.217 116.032 260.135 116.264 259.971 116.469C259.579 116.97 259.047 117.248 258.446 117.362C257.453 117.554 256.442 117.563 255.454 117.344C254.721 117.18 254.029 116.861 253.505 116.273C253.405 116.159 253.305 116.045 253.186 115.954C251.151 114.455 251.442 112.436 251.962 110.385C252.116 109.775 253.687 107.778 254.206 107.409C254.366 107.295 254.543 107.186 254.735 107.131C256.219 106.698 257.708 106.557 259.069 107.473C259.652 107.865 260.458 107.952 260.841 108.562C261.287 109.278 261.592 110.084 261.934 110.864C262.034 111.087 262.075 111.347 262.098 111.593C262.139 112.049 261.884 112.377 261.415 112.409C260.909 112.45 260.408 112.422 259.907 112.422Z" fill="#6091B6"/>
<path d="M175.514 110.285C175.514 108.476 175.514 106.666 175.514 104.862C175.514 104.561 175.505 104.256 175.546 103.959C175.632 103.312 176.097 102.934 176.675 103.011C177.199 103.08 177.531 103.49 177.513 104.082C177.504 104.329 177.408 104.575 177.399 104.821C177.376 105.422 177.303 106.033 177.39 106.621C177.536 107.61 178.228 107.961 179.138 107.592C179.512 107.441 179.862 107.241 180.231 107.086C181.415 106.598 182.726 106.858 183.428 108.179C183.988 109.232 184.316 110.248 184.243 111.461C184.156 112.91 184.252 114.373 184.279 115.831C184.284 116.182 184.302 116.533 184.161 116.87C183.942 117.381 183.232 117.595 182.758 117.276C182.417 117.043 182.367 116.67 182.462 116.332C182.699 115.494 182.622 114.637 182.672 113.789C182.74 112.623 182.467 111.493 182.362 110.344C182.28 109.419 181.588 108.831 180.655 108.717C179.94 108.631 179.261 108.845 178.574 108.968C178.205 109.032 177.941 109.314 177.868 109.679C177.672 110.713 177.408 111.748 177.367 112.791C177.322 113.835 177.203 114.897 177.472 115.945C177.531 116.178 177.504 116.451 177.454 116.688C177.349 117.176 176.812 117.508 176.302 117.44C175.91 117.39 175.591 117.071 175.546 116.624C175.505 116.228 175.518 115.822 175.518 115.421C175.514 113.703 175.514 111.994 175.514 110.285Z" fill="#6696B9"/>
<path d="M307.154 112.659C307.145 114.778 307.072 114.705 305.665 116.086C304.24 117.481 302.564 117.549 300.788 117.394C300.547 117.372 300.283 117.289 300.087 117.153C299.135 116.497 298.179 115.758 297.705 114.71C296.931 112.992 297.045 111.196 297.801 109.474C297.938 109.168 298.215 108.913 298.461 108.667C298.707 108.421 299.03 108.248 299.258 107.988C300.237 106.89 301.512 106.808 302.842 106.894C302.942 106.899 303.047 106.903 303.138 106.944C304.367 107.51 305.505 108.23 306.512 109.136C306.817 109.414 306.931 109.802 306.981 110.217C307.095 111.064 307.218 111.907 307.154 112.659Z" fill="#6B90AD"/>
<path d="M354.569 112.117C354.546 110.663 354.715 109.214 354.596 107.756C354.551 107.177 354.988 106.876 355.584 106.908C356.003 106.931 356.358 107.122 356.709 107.309C357.151 107.546 357.56 107.546 357.988 107.3C358.38 107.072 358.79 106.917 359.259 106.885C360.388 106.808 361.308 107.268 362.159 107.92C362.487 108.17 362.647 108.535 362.783 108.927C363.066 109.756 363.097 110.604 363.038 111.456C362.952 112.764 362.965 114.063 363.175 115.362C363.248 115.799 363.239 116.264 363.175 116.706C363.093 117.271 362.665 117.531 362.073 117.476C361.563 117.426 361.271 117.153 361.253 116.583C361.221 115.631 361.158 114.669 361.258 113.726C361.399 112.4 361.03 111.133 360.948 109.834C360.907 109.191 360.402 108.776 359.728 108.713C359.282 108.667 358.826 108.685 358.375 108.685C357.406 108.694 356.932 108.995 356.754 109.888C356.477 111.31 356.135 112.746 356.463 114.209C356.654 115.066 356.472 115.904 356.417 116.752C356.386 117.235 356.09 117.463 355.625 117.476C355.056 117.49 354.687 117.248 354.605 116.793C354.569 116.597 354.569 116.392 354.569 116.191C354.569 114.824 354.569 113.47 354.569 112.117Z" fill="#6492AA"/>
<path d="M345.589 107.624C345.567 108.334 345.343 108.79 345.129 109.241C344.419 110.736 343.581 112.181 343.003 113.721C342.315 115.558 341.55 117.344 340.576 119.049C340.357 119.431 340.303 119.905 340.143 120.325C339.92 120.908 339.47 121.172 338.85 121.163C338.536 121.159 338.313 120.903 338.286 120.58C338.254 120.147 338.413 119.764 338.668 119.463C339.515 118.479 339.529 117.244 339.743 116.068C339.838 115.553 339.688 115.079 339.388 114.646C338.053 112.723 337.37 110.508 336.605 108.334C336.41 107.774 336.487 107.4 336.783 107.25C337.207 107.031 337.812 107.218 338.085 107.683C338.208 107.892 338.304 108.138 338.34 108.38C338.563 109.797 339.429 110.959 339.888 112.286C339.966 112.504 340.18 112.691 340.371 112.846C340.808 113.202 341.359 113.11 341.687 112.664C341.719 112.623 341.755 112.586 341.778 112.541C342.438 111.082 343.117 109.624 343.75 108.152C343.909 107.778 344 107.387 344.374 107.163C344.633 107.008 344.906 106.89 345.221 107.045C345.539 107.218 345.585 107.5 345.589 107.624Z" fill="#6590B7"/>
<path d="M168.57 111.31C168.57 109.706 168.574 108.107 168.57 106.502C168.565 105.327 168.319 105.026 167.154 104.789C166.812 104.72 166.457 104.698 166.134 104.584C165.842 104.479 165.642 104.233 165.642 103.896C165.642 103.613 165.847 103.444 166.065 103.321C166.416 103.121 166.808 103.007 167.213 103.002C167.764 102.998 168.324 102.952 168.866 103.034C169.672 103.157 170.455 103.166 171.256 103.025C171.643 102.957 172.058 102.984 172.454 103.03C172.764 103.066 172.996 103.267 173.069 103.604C173.151 103.969 173.005 104.324 172.677 104.493C172.499 104.584 172.308 104.648 172.117 104.698C171.876 104.762 171.621 104.784 171.384 104.862C170.268 105.217 170.068 105.573 170.282 106.726C170.337 107.017 170.409 107.327 170.378 107.619C170.168 109.424 170.46 111.224 170.359 113.028C170.305 113.976 170.364 114.933 170.368 115.886C170.368 116.137 170.382 116.387 170.35 116.633C170.286 117.125 169.922 117.408 169.408 117.408C168.889 117.403 168.565 117.116 168.561 116.569C168.547 114.815 168.556 113.06 168.556 111.306C168.552 111.31 168.561 111.31 168.57 111.31Z" fill="#7095AD"/>
<path d="M195.258 117.467C194.433 117.454 193.673 117.221 192.963 116.82C192.648 116.642 192.416 116.396 192.339 116.018C192.207 115.348 192.626 114.901 193.272 115.075C193.609 115.166 193.932 115.316 194.247 115.467C194.675 115.672 195.116 115.685 195.572 115.626C196.068 115.562 196.41 115.257 196.573 114.819C196.742 114.373 196.637 113.935 196.296 113.566C195.982 113.224 195.576 113.033 195.171 112.828C194.452 112.463 193.769 112.058 193.19 111.479C192.771 111.06 192.553 110.595 192.571 110.007C192.58 109.706 192.58 109.405 192.589 109.105C192.617 107.988 193.295 107.314 194.26 107.022C195.412 106.676 196.551 106.853 197.534 107.619C197.689 107.737 197.812 107.911 197.917 108.075C198.103 108.366 197.885 108.84 197.552 108.913C197.147 109.004 196.751 108.954 196.369 108.831C195.927 108.69 195.485 108.631 195.039 108.763C194.297 108.982 194.065 109.683 194.529 110.285C194.843 110.695 195.276 110.955 195.713 111.201C196.505 111.648 197.152 112.286 197.871 112.828C198.914 113.612 198.837 114.756 198.404 115.517C197.726 116.715 196.733 117.517 195.258 117.467Z" fill="#6593B2"/>
<path d="M246.097 115.986C246.138 115.726 246.252 115.33 246.252 114.933C246.261 113.789 246.534 112.637 246.151 111.502C246.088 111.319 246.065 111.101 246.092 110.909C246.229 109.939 245.951 109.187 245.163 108.544C244.621 108.102 244.699 107.491 245.177 106.963C245.277 106.853 245.386 106.744 245.509 106.657C246.101 106.243 246.397 105.723 246.133 104.985C246.083 104.848 246.097 104.689 246.092 104.538C246.056 103.517 246.57 103.062 247.577 103.226C247.918 103.28 248.118 103.508 248.109 103.845C248.1 104.242 248.068 104.648 247.973 105.03C247.818 105.659 248.027 106.101 248.551 106.434C248.679 106.516 248.811 106.589 248.924 106.68C249.872 107.455 249.853 108.07 248.865 108.859C248.71 108.982 248.524 109.068 248.364 109.187C248.009 109.446 247.845 109.802 247.927 110.235C248.305 112.176 247.95 114.136 248.105 116.077C248.118 116.228 248.109 116.378 248.087 116.524C248 117.062 247.554 117.435 247.044 117.399C246.507 117.362 246.147 116.993 246.097 116.419C246.088 116.323 246.097 116.223 246.097 115.986Z" fill="#6A98B7"/>
<path d="M214.837 106.881C215.684 106.817 216.522 107.058 217.096 107.888C217.242 108.097 217.333 108.334 217.21 108.594C217.059 108.913 216.773 109.004 216.458 108.959C215.967 108.881 215.479 108.745 214.988 108.676C214.459 108.603 213.995 108.772 213.658 109.214C213.453 109.483 213.43 109.775 213.603 110.053C213.849 110.444 214.214 110.709 214.614 110.932C215.183 111.251 215.757 111.561 216.299 111.93C216.709 112.208 217.087 112.545 217.442 112.901C217.861 113.316 217.966 113.849 217.888 114.432C217.556 116.97 214.96 118.292 212.697 117.053C212.442 116.911 212.205 116.697 212.037 116.46C211.859 116.209 211.841 115.89 212.014 115.603C212.155 115.362 212.401 115.275 212.656 115.303C212.952 115.334 213.244 115.407 213.53 115.485C213.822 115.562 214.1 115.69 214.391 115.745C214.988 115.858 215.552 115.608 215.807 115.125C216.076 114.619 215.939 114.15 215.598 113.73C215.147 113.174 214.614 112.687 213.94 112.463C212.693 112.049 212.265 110.95 211.705 109.957C211.532 109.651 211.577 109.273 211.705 108.931C212.219 107.601 213.28 106.885 214.837 106.881Z" fill="#6F90A9"/>
<path d="M331.524 107.204C332.175 107.277 332.717 107.191 333.25 107.036C333.691 106.908 334.133 106.894 334.561 107.131C334.866 107.295 334.971 107.623 334.743 107.87C334.575 108.052 334.392 108.234 334.183 108.353C333.923 108.498 333.627 108.576 333.345 108.681C332.735 108.909 332.393 109.328 332.225 109.975C331.924 111.105 331.865 112.249 331.897 113.407C331.92 114.159 332.002 114.906 332.075 115.653C332.107 115.954 332.166 116.241 332.075 116.547C331.924 117.043 331.537 117.372 331.114 117.335C330.554 117.29 330.14 116.948 330.14 116.396C330.13 114.5 329.671 112.609 330.067 110.7C330.144 110.321 330.026 109.907 330.007 109.506C329.989 109.054 329.944 108.603 329.976 108.157C330.026 107.428 330.331 107.163 331.023 107.168C331.223 107.163 331.419 107.195 331.524 107.204Z" fill="#6D95B9"/>
<path d="M309.981 113.498C310.068 112.149 309.863 110.8 310.136 109.451C310.218 109.036 310.05 108.562 309.977 108.12C309.868 107.455 310.145 106.922 311.12 106.954C311.266 106.958 311.416 107.004 311.557 107.045C312.149 107.209 312.736 107.236 313.328 107.031C313.51 106.967 313.72 106.954 313.916 106.963C314.398 106.981 314.676 107.519 314.439 107.956C314.234 108.325 313.943 108.581 313.519 108.658C313.114 108.735 312.759 108.9 312.495 109.232C312.276 109.51 312.09 109.811 312.058 110.171C311.921 111.957 311.562 113.744 311.976 115.544C312.062 115.927 312.053 116.342 312.026 116.738C311.994 117.212 311.571 117.581 311.133 117.586C310.592 117.59 310.05 117.244 309.995 116.797C309.945 116.405 309.981 116 309.977 115.599C309.981 114.897 309.981 114.2 309.981 113.498Z" fill="#6290BF"/>
<path d="M208.904 112.144C208.904 113.598 208.913 115.052 208.9 116.506C208.895 117.094 208.622 117.394 208.139 117.44C207.606 117.495 207.106 117.194 206.983 116.692C206.914 116.405 206.905 116.095 206.928 115.799C207.074 113.849 207.137 111.903 206.919 109.948C206.841 109.255 206.887 108.544 206.887 107.842C206.887 107.455 207.096 107.168 207.42 106.995C208.208 106.566 208.95 107.017 208.95 107.933C208.95 108.635 208.904 109.337 208.895 110.039C208.886 110.741 208.891 111.442 208.891 112.144C208.9 112.144 208.904 112.144 208.904 112.144Z" fill="#658DA3"/>
<path d="M187.221 113.489C187.198 112.144 187.298 110.795 187.039 109.455C186.934 108.922 186.975 108.362 187.184 107.833C187.353 107.418 187.626 107.177 188.086 107.191C188.336 107.195 188.587 107.195 188.833 107.232C189.124 107.277 189.347 107.578 189.311 107.892C189.283 108.134 189.188 108.371 189.142 108.612C189.074 108.954 188.905 109.332 188.992 109.633C189.315 110.823 189.001 112.003 189.038 113.183C189.065 114.031 188.987 114.879 189.233 115.713C189.302 115.945 189.288 116.209 189.261 116.455C189.174 117.194 188.386 117.645 187.69 117.353C187.448 117.253 187.289 117.048 187.253 116.788C187.221 116.542 187.225 116.291 187.221 116.041C187.221 115.189 187.221 114.336 187.221 113.489Z" fill="#7597AE"/>
<path d="M378.256 36.0376C380.023 36.2882 381.848 36.0649 383.633 36.2791C386.939 36.6756 389.922 37.8559 392.403 40.1847C393.282 41.0096 394.125 41.8572 394.958 42.7231C396.31 44.1268 397.23 45.7628 397.826 47.5994C398.186 48.7068 397.858 49.2856 396.725 49.6092C396.233 49.7505 395.741 49.7687 395.236 49.7322C394.589 49.6821 393.938 49.6137 393.287 49.6137C385.259 49.6001 377.227 49.5955 369.199 49.5909C369.049 49.5909 368.894 49.5727 368.748 49.6001C367 49.8963 365.251 49.5317 363.503 49.6092C363.402 49.6137 363.302 49.6046 363.202 49.6092C362.191 49.673 361.832 49.0851 362.182 48.1645C363.084 45.8039 364.35 43.6346 366.002 41.7433C366.945 40.6632 368.042 39.7107 369.336 38.9679C370.647 38.2159 372.018 37.6235 373.37 36.9764C374.335 36.5115 375.414 36.4933 376.434 36.2518C377.017 36.115 377.627 36.1059 378.256 36.0376Z" fill="white"/>
<path d="M102.117 56.8279C102.213 54.9731 102.308 53.1183 102.413 51.2635C102.422 51.0629 102.449 50.8533 102.527 50.6756C103.169 49.2081 103.62 47.6495 104.567 46.3234C104.772 46.0362 105.008 45.7628 105.14 45.4438C105.905 43.6027 107.385 42.3859 108.856 41.1736C110.978 39.4236 113.332 38.1293 116.069 37.6189C116.51 37.5369 116.961 37.4503 117.407 37.4457C119.315 37.4275 121.223 37.4002 123.131 37.4594C124.433 37.5004 125.727 37.7055 126.91 38.3344C127.215 38.4985 127.562 38.6033 127.899 38.6945C128.591 38.8813 129.228 39.1456 129.724 39.6879C129.825 39.7973 129.957 39.8885 130.089 39.9477C131.833 40.7361 133.067 42.1534 134.346 43.4842C135.034 44.1997 135.626 45.0473 136.095 45.9223C137.333 48.2237 138.522 50.5525 138.449 53.2869C138.431 54.0343 138.567 54.7862 138.613 55.5382C138.736 57.548 138.476 59.5486 138.39 61.5538C138.381 61.7498 138.321 61.9503 138.271 62.1417C137.611 64.7485 136.509 67.1502 134.929 69.324C134.665 69.6886 134.333 70.003 134.023 70.3266C133.745 70.6183 133.372 70.8461 133.181 71.1834C132.661 72.1085 131.751 72.5551 130.995 73.2023C129.501 74.4692 127.675 75.0115 125.936 75.7498C124.962 76.1599 123.901 76.3058 122.849 76.3377C120.59 76.4106 118.336 76.4379 116.087 76.1189C114.98 75.964 113.929 75.6997 112.954 75.1391C112.476 74.8657 111.98 74.6196 111.497 74.3553C110.208 73.6626 108.993 72.8741 107.968 71.8123C107.622 71.4523 107.253 71.1014 106.857 70.796C106.324 70.3859 105.96 69.8663 105.655 69.2784C105.377 68.7452 105.104 68.1938 104.721 67.7381C104.098 66.9861 103.783 66.0974 103.383 65.2316C102.39 63.0714 102.254 60.7836 102.181 58.4731C102.162 57.9217 102.176 57.3702 102.176 56.8142C102.162 56.8325 102.14 56.8279 102.117 56.8279Z" fill="white"/>
<path d="M517.209 37.4412C518.342 37.4776 519.85 37.3455 521.343 37.669C522.035 37.8194 522.709 37.9698 523.347 38.2888C523.702 38.4666 524.084 38.5987 524.467 38.7218C525.136 38.9405 525.801 39.1593 526.293 39.7153C526.42 39.8611 526.611 39.9568 526.789 40.0479C528.009 40.6769 528.97 41.6065 529.972 42.5362C531.142 43.6209 531.975 44.9288 532.754 46.2504C533.687 47.8363 534.575 49.4952 534.808 51.3865C534.839 51.6326 534.908 51.8787 534.93 52.1293C535.195 55.1873 535.267 58.2452 534.94 61.2986C534.903 61.6449 534.83 61.9913 534.726 62.324C534.421 63.281 534.093 64.2289 533.769 65.1768C533.364 66.3709 532.731 67.4236 532.021 68.4763C531.174 69.7387 530.04 70.7367 529.148 71.9444C528.915 72.2589 528.56 72.4913 528.237 72.7237C527.458 73.2706 526.616 73.7263 525.896 74.3643C525.678 74.5558 525.386 74.7198 525.104 74.7745C524.198 74.9386 523.415 75.3988 522.577 75.727C521.352 76.21 520.05 76.3878 518.738 76.3787C516.585 76.3559 514.422 76.4653 512.282 76.0916C511.585 75.9731 510.897 75.8546 510.26 75.531C508.02 74.3917 505.825 73.2205 504.013 71.4021C503.152 70.5408 502.296 69.7296 501.813 68.5948C501.754 68.4581 501.695 68.3077 501.595 68.2029C500.256 66.8038 499.901 64.9307 499.195 63.2263C499.081 62.9529 498.995 62.6521 498.977 62.3604C498.822 59.9542 498.567 57.5571 498.722 55.1417C498.804 53.8884 498.872 52.6352 498.972 51.3865C498.999 51.0447 499.09 50.6938 499.218 50.3702C499.578 49.436 499.892 48.4698 500.365 47.5903C501.126 46.1821 501.832 44.7055 502.924 43.5343C503.944 42.4405 505.083 41.447 506.271 40.5128C508.134 39.0545 510.219 38.1612 512.496 37.6371C513.042 37.5141 513.579 37.4412 514.135 37.4412C515.037 37.4366 515.938 37.4412 517.209 37.4412Z" fill="white"/>
<path d="M292.519 112.34C292.692 113.525 292.055 114.541 291.03 115.385C290.584 115.749 290.088 115.909 289.509 115.895C288.098 115.849 286.987 115.289 286.354 113.995C285.725 112.705 285.643 111.424 286.509 110.166C287.465 108.781 288.844 108.257 290.411 108.745C291.23 109 291.681 109.679 292.209 110.276C292.578 110.695 292.56 111.192 292.555 111.689C292.551 111.834 292.537 111.985 292.519 112.34Z" fill="#FEFFFF"/>
<path d="M318.373 112.03C318.337 111.411 318.428 110.777 318.692 110.162C318.879 109.724 319.152 109.346 319.566 109.164C320.796 108.626 322.062 108.366 323.346 108.991C324.539 109.574 324.999 110.681 325.313 111.866C325.39 112.153 325.295 112.459 325.172 112.746C325.012 113.115 324.862 113.489 324.757 113.876C324.471 114.952 323.646 115.412 322.676 115.594C321.889 115.74 321.078 115.676 320.291 115.448C319.448 115.207 318.92 114.696 318.651 113.849C318.465 113.261 318.36 112.682 318.373 112.03Z" fill="white"/>
<path d="M375.041 112.062C375.068 113.484 374.331 114.532 373.356 115.453C373.22 115.581 373.01 115.658 372.819 115.699C371.863 115.895 370.929 115.717 370.019 115.448C369.345 115.252 368.99 114.687 368.662 114.113C368.539 113.894 368.407 113.68 368.266 113.475C367.842 112.832 367.81 112.176 368.124 111.474C368.329 111.019 368.493 110.545 368.662 110.071C368.885 109.451 369.317 109.086 369.955 108.941C370.838 108.735 371.735 108.676 372.637 108.649C372.946 108.64 373.238 108.699 373.466 108.927C374.34 109.797 375.023 110.763 375.041 112.062Z" fill="#FEFFFF"/>
<path d="M231.881 115.663C229.349 115.653 229.058 115.435 228.27 113.375C228.006 112.682 227.928 112.026 228.197 111.329C228.325 111 228.448 110.663 228.498 110.321C228.611 109.574 229.071 109.146 229.75 108.986C230.624 108.781 231.517 108.594 232.409 108.512C233.261 108.435 233.857 109.004 234.194 109.688C234.827 110.969 235.15 112.327 234.704 113.767C234.29 115.107 233.593 115.635 232.181 115.667C231.986 115.667 231.785 115.663 231.881 115.663Z" fill="#FEFFFF"/>
<path d="M404.11 110.818C403.76 110.818 403.409 110.823 403.054 110.818C402.53 110.809 402.079 110.599 401.679 110.276C401.21 109.898 401.246 109.364 401.788 109.05C402.043 108.9 402.33 108.758 402.617 108.708C403.564 108.549 404.52 108.567 405.467 108.694C405.754 108.735 406.041 108.877 406.296 109.027C406.929 109.401 406.915 110.043 406.3 110.481C406.004 110.691 405.677 110.8 405.317 110.804C404.916 110.809 404.511 110.804 404.11 110.804C404.11 110.804 404.11 110.809 404.11 110.818Z" fill="#FBFDFD"/>
<path d="M256.888 110.786C256.647 110.786 256.292 110.804 255.946 110.782C255.7 110.763 255.445 110.718 255.217 110.631C254.662 110.426 254.243 109.934 254.279 109.569C254.316 109.209 254.807 108.745 255.372 108.672C256.57 108.517 257.776 108.517 258.956 108.827C259.402 108.945 259.789 109.214 259.866 109.724C259.916 110.057 259.507 110.39 258.937 110.563C258.3 110.75 257.644 110.745 256.888 110.786Z" fill="#FAFCFD"/>
<path d="M305.542 112.463C305.642 113.097 305.291 113.803 304.832 114.482C304.413 115.102 303.839 115.457 303.115 115.599C303.015 115.617 302.915 115.631 302.819 115.644C300.287 116 298.753 114.537 298.962 111.976C299.021 111.26 299.263 110.604 299.568 109.97C299.918 109.228 300.538 108.84 301.33 108.717C301.526 108.685 301.731 108.708 301.931 108.69C304.467 108.448 305.351 109.893 305.542 112.463Z" fill="white"/>
</svg>
